<?xml version="1.0" encoding="utf-8"?>
<!-- Generator: Adobe Illustrator 26.2.1, SVG Export Plug-In . SVG Version: 6.00 Build 0)  -->
<svg version="1.1" id="a" xmlns="http://www.w3.org/2000/svg" xmlns:xlink="http://www.w3.org/1999/xlink" x="0px" y="0px"
	 viewBox="0 0 176.4 176.4" style="enable-background:new 0 0 176.4 176.4;" xml:space="preserve">
<style type="text/css">
	.st0{display:none;}
	.st1{display:inline;fill:#FFFFFF;}
	.st2{display:inline;fill:#00AEEF;}
	.st3{display:inline;fill:#EC008C;}
	.st4{display:inline;fill:#FFF200;}
	.st5{fill:#FFFFFF;}
	.st6{fill:#00AEEF;}
	.st7{fill:#EC008C;}
	.st8{fill:#FFF200;}
</style>
<g>
	<rect x="-4.6" y="-4.9" width="185.1" height="185.1"/>
	<g class="st0">
		<path class="st1" d="M31.1,154.2c-0.7,0.4-1.4,0.7-2.2,0.9c-0.8,0.2-1.5,0.3-2.3,0.3c-0.9,0-1.8-0.1-2.6-0.5
			c-0.8-0.3-1.4-0.7-2-1.3c-0.6-0.6-1-1.2-1.3-2c-0.3-0.8-0.5-1.6-0.5-2.6c0-0.9,0.2-1.8,0.5-2.6c0.3-0.8,0.8-1.4,1.4-2
			c0.6-0.5,1.3-1,2-1.3c0.8-0.3,1.6-0.5,2.5-0.5c0.8,0,1.5,0.1,2.3,0.4s1.4,0.6,1.9,1.2l-1.1,1.1c-0.4-0.4-0.9-0.8-1.5-1
			c-0.6-0.2-1.2-0.4-1.8-0.4c-0.7,0-1.3,0.1-1.9,0.4c-0.6,0.2-1.1,0.6-1.5,1c-0.4,0.4-0.8,1-1,1.6s-0.4,1.3-0.4,2
			c0,0.7,0.1,1.4,0.4,2s0.6,1.1,1,1.6c0.4,0.4,0.9,0.8,1.6,1c0.6,0.2,1.3,0.4,2,0.4c0.5,0,1-0.1,1.5-0.2c0.5-0.1,1-0.3,1.4-0.5v-3.7
			H27v-1.3h4.2V154.2z"/>
		<rect x="39.4" y="142.2" class="st1" width="1.3" height="12.8"/>
		<path class="st1" d="M48.6,148.1c0.4-0.4,0.9-0.7,1.4-0.9s1.1-0.3,1.7-0.3c1.2,0,2,0.3,2.5,0.8c0.5,0.6,0.8,1.4,0.8,2.5v3.4
			c0,0.2,0,0.5,0,0.7c0,0.2,0.1,0.5,0.1,0.7h-1.3c0-0.2-0.1-0.4-0.1-0.6c0-0.2,0-0.4,0-0.6h0c-0.3,0.4-0.6,0.7-1,1
			c-0.4,0.3-0.9,0.4-1.6,0.4c-0.4,0-0.8-0.1-1.1-0.1c-0.4-0.1-0.7-0.3-0.9-0.4c-0.3-0.2-0.5-0.4-0.6-0.7c-0.1-0.3-0.2-0.6-0.2-1
			c0-0.6,0.2-1.2,0.5-1.5c0.3-0.4,0.8-0.6,1.3-0.8c0.5-0.2,1-0.3,1.6-0.3c0.6,0,1.1-0.1,1.6-0.1h0.5v-0.2c0-0.6-0.2-1-0.5-1.3
			c-0.4-0.3-0.8-0.4-1.4-0.4c-0.4,0-0.9,0.1-1.3,0.2c-0.4,0.1-0.8,0.4-1.1,0.6L48.6,148.1z M52.4,151.2c-0.9,0-1.5,0.1-2,0.4
			c-0.5,0.2-0.7,0.6-0.7,1.2c0,0.5,0.2,0.9,0.5,1.1c0.3,0.2,0.7,0.3,1.2,0.3c0.4,0,0.7-0.1,1-0.2c0.3-0.1,0.5-0.3,0.7-0.5
			c0.2-0.2,0.3-0.5,0.4-0.8c0.1-0.3,0.1-0.6,0.2-0.9v-0.5L52.4,151.2L52.4,151.2z"/>
		<path class="st1" d="M63,152.9c0.3,0.3,0.5,0.6,0.9,0.8c0.3,0.2,0.7,0.3,1.2,0.3c0.2,0,0.4,0,0.6-0.1c0.2,0,0.4-0.1,0.6-0.2
			c0.2-0.1,0.3-0.2,0.4-0.4c0.1-0.1,0.1-0.3,0.1-0.6s-0.1-0.4-0.1-0.5c-0.1-0.1-0.2-0.2-0.4-0.4c-0.1-0.1-0.3-0.2-0.5-0.2
			s-0.4-0.1-0.6-0.1c-0.4-0.1-0.7-0.2-1.1-0.3c-0.3-0.1-0.6-0.2-0.9-0.4c-0.3-0.2-0.5-0.4-0.6-0.6c-0.1-0.3-0.2-0.6-0.2-1
			c0-0.4,0.1-0.7,0.3-1s0.4-0.5,0.7-0.7c0.3-0.2,0.6-0.3,0.9-0.4c0.4-0.1,0.7-0.1,1.1-0.1c0.6,0,1.1,0.1,1.6,0.3
			c0.5,0.2,0.9,0.6,1.1,1.1l-1.1,0.7c-0.2-0.3-0.4-0.5-0.7-0.7c-0.3-0.2-0.6-0.3-1-0.3c-0.2,0-0.4,0-0.6,0.1c-0.2,0-0.4,0.1-0.5,0.2
			c-0.1,0.1-0.3,0.2-0.4,0.4c-0.1,0.1-0.1,0.3-0.1,0.5c0,0.2,0.1,0.3,0.2,0.4c0.1,0.1,0.3,0.2,0.4,0.3s0.4,0.2,0.6,0.2
			c0.2,0.1,0.5,0.1,0.8,0.2c0.4,0.1,0.7,0.1,1,0.3c0.3,0.1,0.6,0.3,0.8,0.4c0.2,0.2,0.4,0.4,0.6,0.7c0.1,0.3,0.2,0.6,0.2,1
			c0,0.4-0.1,0.8-0.3,1.1c-0.2,0.3-0.4,0.6-0.7,0.8c-0.3,0.2-0.6,0.3-1,0.4c-0.4,0.1-0.8,0.1-1.1,0.1c-0.7,0-1.3-0.1-1.7-0.3
			s-0.9-0.6-1.3-1.1L63,152.9z"/>
		<path class="st1" d="M75.6,152.9c0.3,0.3,0.5,0.6,0.9,0.8c0.3,0.2,0.7,0.3,1.2,0.3c0.2,0,0.4,0,0.6-0.1c0.2,0,0.4-0.1,0.6-0.2
			c0.2-0.1,0.3-0.2,0.4-0.4c0.1-0.1,0.1-0.3,0.1-0.6s-0.1-0.4-0.1-0.5c-0.1-0.1-0.2-0.2-0.4-0.4c-0.1-0.1-0.3-0.2-0.5-0.2
			c-0.2-0.1-0.4-0.1-0.6-0.1c-0.4-0.1-0.7-0.2-1.1-0.3c-0.3-0.1-0.6-0.2-0.9-0.4c-0.3-0.2-0.5-0.4-0.6-0.6c-0.1-0.3-0.2-0.6-0.2-1
			c0-0.4,0.1-0.7,0.3-1s0.4-0.5,0.7-0.7c0.3-0.2,0.6-0.3,0.9-0.4c0.4-0.1,0.7-0.1,1.1-0.1c0.6,0,1.1,0.1,1.6,0.3
			c0.5,0.2,0.9,0.6,1.1,1.1l-1.1,0.7c-0.2-0.3-0.4-0.5-0.7-0.7c-0.3-0.2-0.6-0.3-1-0.3c-0.2,0-0.4,0-0.6,0.1c-0.2,0-0.4,0.1-0.5,0.2
			c-0.1,0.1-0.3,0.2-0.4,0.4c-0.1,0.1-0.1,0.3-0.1,0.5c0,0.2,0.1,0.3,0.2,0.4c0.1,0.1,0.3,0.2,0.4,0.3s0.4,0.2,0.6,0.2
			c0.2,0.1,0.5,0.1,0.8,0.2c0.4,0.1,0.7,0.1,1,0.3c0.3,0.1,0.6,0.3,0.8,0.4c0.2,0.2,0.4,0.4,0.6,0.7c0.1,0.3,0.2,0.6,0.2,1
			c0,0.4-0.1,0.8-0.3,1.1c-0.2,0.3-0.4,0.6-0.7,0.8c-0.3,0.2-0.6,0.3-1,0.4c-0.4,0.1-0.8,0.1-1.1,0.1c-0.7,0-1.3-0.1-1.7-0.3
			s-0.9-0.6-1.3-1.1L75.6,152.9z"/>
		<polygon class="st1" points="88.2,143 89.6,143 89.6,148.1 96,148.1 96,143 97.4,143 97.4,155 96,155 96,149.4 89.6,149.4 
			89.6,155 88.2,155 		"/>
		<path class="st1" d="M105.1,151c0-0.6,0.1-1.2,0.3-1.7c0.2-0.5,0.5-0.9,0.9-1.3s0.8-0.6,1.3-0.9s1.1-0.3,1.7-0.3
			c0.6,0,1.2,0.1,1.7,0.3s1,0.5,1.3,0.9c0.4,0.4,0.7,0.8,0.9,1.3c0.2,0.5,0.3,1.1,0.3,1.7c0,0.6-0.1,1.2-0.3,1.7
			c-0.2,0.5-0.5,0.9-0.9,1.3c-0.4,0.4-0.8,0.6-1.3,0.9s-1.1,0.3-1.7,0.3c-0.6,0-1.2-0.1-1.7-0.3s-1-0.5-1.3-0.9s-0.7-0.8-0.9-1.3
			C105.2,152.2,105.1,151.6,105.1,151 M106.5,151c0,0.4,0.1,0.8,0.2,1.1c0.1,0.4,0.3,0.7,0.6,0.9c0.2,0.3,0.5,0.5,0.9,0.6
			c0.4,0.1,0.7,0.2,1.1,0.2c0.4,0,0.8-0.1,1.1-0.2c0.4-0.1,0.6-0.4,0.9-0.6c0.2-0.3,0.4-0.6,0.6-0.9c0.1-0.4,0.2-0.7,0.2-1.1
			c0-0.4-0.1-0.8-0.2-1.1c-0.1-0.4-0.3-0.7-0.6-0.9c-0.2-0.3-0.5-0.5-0.9-0.6c-0.4-0.1-0.7-0.2-1.1-0.2c-0.4,0-0.8,0.1-1.1,0.2
			c-0.4,0.1-0.6,0.4-0.9,0.6c-0.2,0.3-0.4,0.6-0.6,0.9C106.6,150.2,106.5,150.6,106.5,151"/>
		<path class="st1" d="M127.8,153.1c0,0.4,0,0.7,0,1c0,0.3,0,0.6,0,0.9h-1.3c0-0.2,0-0.4,0-0.6s0-0.4,0-0.7h0
			c-0.1,0.2-0.2,0.4-0.4,0.6c-0.2,0.2-0.4,0.3-0.6,0.5c-0.2,0.1-0.5,0.3-0.8,0.3c-0.3,0.1-0.6,0.1-0.9,0.1c-0.5,0-1-0.1-1.3-0.2
			c-0.4-0.1-0.7-0.4-0.9-0.7c-0.2-0.3-0.4-0.6-0.6-1c-0.1-0.4-0.2-0.8-0.2-1.3v-4.9h1.3v4.7c0,0.7,0.1,1.2,0.4,1.6
			c0.3,0.4,0.7,0.6,1.4,0.6c0.4,0,0.8-0.1,1.1-0.2c0.3-0.1,0.6-0.4,0.8-0.6c0.2-0.3,0.4-0.6,0.4-1c0.1-0.4,0.1-0.8,0.1-1.2V147h1.3
			L127.8,153.1L127.8,153.1z"/>
		<path class="st1" d="M135.9,152.9c0.3,0.3,0.5,0.6,0.9,0.8c0.3,0.2,0.7,0.3,1.2,0.3c0.2,0,0.4,0,0.6-0.1c0.2,0,0.4-0.1,0.6-0.2
			c0.2-0.1,0.3-0.2,0.4-0.4c0.1-0.1,0.1-0.3,0.1-0.6s-0.1-0.4-0.1-0.5s-0.2-0.2-0.4-0.4c-0.1-0.1-0.3-0.2-0.5-0.2s-0.4-0.1-0.6-0.1
			c-0.4-0.1-0.7-0.2-1.1-0.3c-0.3-0.1-0.6-0.2-0.9-0.4c-0.3-0.2-0.5-0.4-0.6-0.6c-0.1-0.3-0.2-0.6-0.2-1c0-0.4,0.1-0.7,0.3-1
			s0.4-0.5,0.7-0.7c0.3-0.2,0.6-0.3,0.9-0.4c0.4-0.1,0.7-0.1,1.1-0.1c0.6,0,1.1,0.1,1.6,0.3c0.5,0.2,0.9,0.6,1.1,1.1l-1.1,0.7
			c-0.2-0.3-0.4-0.5-0.7-0.7c-0.3-0.2-0.6-0.3-1-0.3c-0.2,0-0.4,0-0.6,0.1c-0.2,0-0.4,0.1-0.5,0.2c-0.1,0.1-0.3,0.2-0.4,0.4
			c-0.1,0.1-0.1,0.3-0.1,0.5c0,0.2,0.1,0.3,0.2,0.4c0.1,0.1,0.3,0.2,0.4,0.3c0.2,0.1,0.4,0.2,0.6,0.2s0.5,0.1,0.7,0.2
			c0.4,0.1,0.7,0.1,1,0.3c0.3,0.1,0.6,0.3,0.8,0.4c0.2,0.2,0.4,0.4,0.6,0.7c0.1,0.3,0.2,0.6,0.2,1c0,0.4-0.1,0.8-0.3,1.1
			c-0.2,0.3-0.4,0.6-0.7,0.8c-0.3,0.2-0.6,0.3-1,0.4c-0.4,0.1-0.8,0.1-1.1,0.1c-0.7,0-1.3-0.1-1.7-0.3s-0.9-0.6-1.3-1.1L135.9,152.9
			z"/>
		<path class="st1" d="M155.3,153.5c-0.5,0.6-1,1-1.6,1.3c-0.6,0.2-1.2,0.4-2,0.4c-0.6,0-1.2-0.1-1.7-0.3s-0.9-0.5-1.3-0.9
			c-0.4-0.4-0.6-0.8-0.8-1.3c-0.2-0.5-0.3-1.1-0.3-1.6c0-0.6,0.1-1.2,0.3-1.7s0.5-0.9,0.9-1.3c0.4-0.4,0.8-0.6,1.3-0.9
			s1-0.3,1.6-0.3c0.6,0,1.1,0.1,1.5,0.3c0.5,0.2,0.9,0.5,1.2,0.8c0.3,0.4,0.6,0.8,0.8,1.3c0.2,0.5,0.3,1.1,0.3,1.7v0.4h-6.4
			c0,0.3,0.1,0.7,0.2,1c0.1,0.3,0.3,0.6,0.6,0.8c0.2,0.2,0.5,0.4,0.8,0.6c0.3,0.1,0.6,0.2,1,0.2c0.6,0,1.1-0.1,1.4-0.3
			c0.4-0.2,0.7-0.5,1.1-0.9L155.3,153.5z M154.2,150.3c0-0.7-0.2-1.2-0.6-1.6c-0.4-0.4-1-0.6-1.7-0.6c-0.7,0-1.3,0.2-1.8,0.6
			c-0.4,0.4-0.7,0.9-0.8,1.6H154.2z"/>
		<path class="st1" d="M84.9,77.2v13h14.2c-3,4.4-8.4,7.3-14.2,7.3c-9,0-17.4-7.3-17.4-17.5s8.1-17.5,17.4-17.5c0,0,0,0,0.1,0h11.9
			V43.2H84.9l0,0c0,0,0,0-0.1,0c-20.3,0-36.7,16.5-36.7,36.8s16.4,36.8,36.7,36.8s36.8-16.5,36.8-36.8v-2.7L84.9,77.2L84.9,77.2z"/>
		<polygon class="st1" points="132.9,20.3 132.9,43.2 121.6,43.2 121.6,20 102.7,20 102.7,71.4 121.6,71.4 121.6,62.5 132.9,62.5 
			132.9,101.2 151.9,101.2 151.9,20.3 		"/>
		<path class="st2" d="M83.3,131.6c-28.3,0-51.2-23-51.2-51.4c0-9.8,2.8-19.3,8-27.5c5.1-8,12.2-14.4,20.7-18.6
			c0.7-0.4,1.6-0.1,2,0.7c0.4,0.7,0.1,1.6-0.7,2c-8,3.9-14.7,10-19.5,17.5C37.6,62.1,35,71,35,80.2c0,26.7,21.7,48.4,48.3,48.4
			c7.1,0,13.9-1.5,20.3-4.5c0.7-0.4,1.6,0,2,0.7c0.4,0.7,0,1.6-0.7,2C98,130,90.8,131.6,83.3,131.6"/>
		<path class="st3" d="M84.6,124.8c-24.7,0-44.7-20.1-44.7-44.8s20-44.8,44.7-44.8h12c0.8,0,1.5,0.7,1.5,1.5c0,0.8-0.7,1.5-1.5,1.5
			h-12c-23,0-41.7,18.8-41.7,41.8s18.7,41.8,41.7,41.8c23.1,0,41.8-18.8,41.8-41.8v-2.6c0-0.8,0.7-1.5,1.5-1.5
			c0.8,0,1.5,0.7,1.5,1.5V80C129.4,104.7,109.3,124.8,84.6,124.8"/>
		<path class="st4" d="M49.8,128.2c-0.3,0-0.6-0.1-0.9-0.3c-7.5-5.4-13.7-12.6-18-20.8c-4.4-8.5-6.8-18-6.8-27.6
			c0-13.3,4.3-25.8,12.3-36.3c0.5-0.6,1.4-0.8,2.1-0.3c0.6,0.5,0.8,1.4,0.3,2.1c-7.7,10-11.7,21.9-11.7,34.5
			c0,9.1,2.2,18.2,6.4,26.2c4.1,7.8,10,14.6,17.1,19.7c0.7,0.5,0.8,1.4,0.3,2.1C50.7,128,50.3,128.2,49.8,128.2"/>
	</g>
</g>
<g>
	<path class="st5" d="M31.7,144.1c-1.3,0.7-2.6,1.2-4,1.4c-1.4,0.3-2.8,0.4-4.3,0.4c-1.5,0-3-0.2-4.3-0.7c-1.3-0.5-2.4-1.2-3.4-2.1
		c-0.9-0.9-1.7-2-2.2-3.3c-0.5-1.3-0.8-2.7-0.8-4.3c0-1.6,0.3-3,0.8-4.3c0.5-1.3,1.3-2.4,2.2-3.3c0.9-0.9,2.1-1.6,3.4-2.1
		c1.3-0.5,2.7-0.7,4.3-0.7s3,0.2,4.4,0.6c1.3,0.4,2.5,1,3.5,2l-3.1,3.3c-0.6-0.6-1.3-1.1-2-1.4c-0.7-0.3-1.7-0.5-2.8-0.5
		c-0.9,0-1.8,0.2-2.5,0.5c-0.8,0.3-1.4,0.8-1.9,1.3c-0.5,0.6-0.9,1.2-1.2,2c-0.3,0.8-0.4,1.6-0.4,2.5c0,0.9,0.1,1.8,0.4,2.6
		c0.3,0.8,0.7,1.4,1.2,2c0.5,0.6,1.2,1,1.9,1.3c0.8,0.3,1.6,0.5,2.5,0.5s1.8-0.1,2.5-0.3c0.7-0.2,1.2-0.4,1.6-0.7v-3.2H24v-4h7.7
		L31.7,144.1L31.7,144.1z"/>
	<rect x="35.1" y="124.4" class="st5" width="4.2" height="21.1"/>
	<path class="st5" d="M50.8,143.8L50.8,143.8c-0.5,0.7-1.1,1.2-1.9,1.6c-0.8,0.3-1.6,0.5-2.4,0.5c-0.6,0-1.2-0.1-1.8-0.3
		c-0.6-0.2-1.1-0.4-1.6-0.8c-0.4-0.4-0.8-0.8-1.1-1.3c-0.3-0.5-0.4-1.1-0.4-1.8c0-0.8,0.1-1.4,0.4-2c0.3-0.5,0.7-1,1.2-1.3
		s1.1-0.6,1.7-0.8c0.6-0.2,1.3-0.3,2-0.4c0.7-0.1,1.4-0.2,2-0.2c0.7,0,1.3,0,1.9,0c0-0.7-0.3-1.3-0.8-1.8c-0.5-0.4-1.2-0.7-1.9-0.7
		c-0.7,0-1.3,0.1-1.9,0.4s-1.1,0.7-1.5,1.2l-2.2-2.3c0.8-0.7,1.7-1.3,2.7-1.6c1-0.4,2.1-0.5,3.2-0.5c1.2,0,2.2,0.2,3,0.5
		c0.8,0.3,1.4,0.8,1.9,1.3c0.5,0.6,0.8,1.3,1,2.2c0.2,0.9,0.3,1.9,0.3,3v6.9h-3.8L50.8,143.8L50.8,143.8z M49.7,139.6
		c-0.3,0-0.7,0-1.2,0c-0.5,0-0.9,0.1-1.4,0.2c-0.4,0.1-0.8,0.3-1.1,0.6c-0.3,0.3-0.5,0.6-0.5,1.1c0,0.5,0.2,0.9,0.6,1.1
		c0.4,0.2,0.9,0.4,1.3,0.4c0.4,0,0.8-0.1,1.2-0.2c0.4-0.1,0.7-0.3,1-0.5c0.3-0.2,0.5-0.5,0.7-0.8c0.2-0.3,0.3-0.7,0.3-1.1v-0.9
		L49.7,139.6L49.7,139.6z"/>
	<path class="st5" d="M64.9,136c-0.6-0.8-1.4-1.1-2.4-1.1c-0.4,0-0.7,0.1-1,0.2c-0.3,0.2-0.5,0.5-0.5,0.9c0,0.3,0.2,0.6,0.5,0.7
		c0.3,0.2,0.8,0.3,1.3,0.4c0.5,0.1,1.1,0.2,1.7,0.4c0.6,0.1,1.2,0.4,1.7,0.7c0.5,0.3,1,0.7,1.3,1.2c0.3,0.5,0.5,1.2,0.5,2
		c0,0.9-0.2,1.6-0.6,2.2c-0.4,0.6-0.9,1-1.5,1.4c-0.6,0.3-1.3,0.6-2,0.7c-0.7,0.1-1.5,0.2-2.2,0.2c-0.9,0-1.9-0.1-2.9-0.4
		c-1-0.3-1.8-0.7-2.5-1.4l2.5-2.8c0.4,0.5,0.8,0.9,1.3,1.1c0.5,0.2,1,0.4,1.7,0.4c0.5,0,0.9-0.1,1.3-0.2c0.4-0.1,0.6-0.4,0.6-0.8
		s-0.2-0.6-0.5-0.8c-0.3-0.2-0.8-0.3-1.3-0.4c-0.5-0.1-1.1-0.2-1.7-0.4c-0.6-0.1-1.2-0.3-1.7-0.6c-0.5-0.3-1-0.7-1.3-1.2
		c-0.3-0.5-0.5-1.2-0.5-2c0-0.8,0.2-1.5,0.5-2.1c0.3-0.6,0.8-1,1.3-1.4c0.5-0.4,1.1-0.6,1.8-0.8c0.7-0.2,1.4-0.3,2.1-0.3
		c0.9,0,1.8,0.1,2.7,0.4s1.7,0.7,2.3,1.4L64.9,136L64.9,136z"/>
	<path class="st5" d="M77.8,136c-0.6-0.8-1.4-1.1-2.4-1.1c-0.4,0-0.7,0.1-1,0.2c-0.3,0.2-0.5,0.5-0.5,0.9c0,0.3,0.2,0.6,0.5,0.7
		c0.3,0.2,0.8,0.3,1.3,0.4c0.5,0.1,1.1,0.2,1.7,0.4c0.6,0.1,1.2,0.4,1.7,0.7c0.5,0.3,1,0.7,1.3,1.2c0.3,0.5,0.5,1.2,0.5,2
		c0,0.9-0.2,1.6-0.6,2.2c-0.4,0.6-0.9,1-1.5,1.4c-0.6,0.3-1.3,0.6-2,0.7c-0.7,0.1-1.5,0.2-2.2,0.2c-0.9,0-1.9-0.1-2.9-0.4
		c-1-0.3-1.8-0.7-2.5-1.4l2.5-2.8c0.4,0.5,0.8,0.9,1.3,1.1c0.5,0.2,1,0.4,1.7,0.4c0.5,0,0.9-0.1,1.3-0.2c0.4-0.1,0.6-0.4,0.6-0.8
		s-0.2-0.6-0.5-0.8c-0.3-0.2-0.8-0.3-1.3-0.4c-0.5-0.1-1.1-0.2-1.7-0.4c-0.6-0.1-1.2-0.3-1.7-0.6c-0.5-0.3-1-0.7-1.3-1.2
		c-0.3-0.5-0.5-1.2-0.5-2c0-0.8,0.2-1.5,0.5-2.1c0.3-0.6,0.8-1,1.3-1.4c0.5-0.4,1.1-0.6,1.8-0.8c0.7-0.2,1.4-0.3,2.1-0.3
		c0.9,0,1.8,0.1,2.7,0.4c0.9,0.3,1.7,0.7,2.3,1.4L77.8,136L77.8,136z"/>
	<polygon class="st5" points="83.6,125.8 87.9,125.8 87.9,133.1 96.4,133.1 96.4,125.8 100.7,125.8 100.7,145.5 96.4,145.5 
		96.4,137 87.9,137 87.9,145.5 83.6,145.5 	"/>
	<path class="st5" d="M103.7,138.7c0-1.1,0.2-2,0.6-2.9c0.4-0.9,0.9-1.6,1.6-2.2s1.5-1.1,2.4-1.4c0.9-0.3,1.9-0.5,2.9-0.5
		s2,0.2,2.9,0.5c0.9,0.3,1.7,0.8,2.4,1.4c0.7,0.6,1.2,1.4,1.6,2.2c0.4,0.9,0.6,1.9,0.6,2.9c0,1.1-0.2,2.1-0.6,2.9
		c-0.4,0.9-0.9,1.6-1.6,2.2c-0.7,0.6-1.5,1.1-2.4,1.4c-0.9,0.3-1.9,0.5-2.9,0.5s-2-0.2-2.9-0.5c-0.9-0.3-1.7-0.8-2.4-1.4
		c-0.7-0.6-1.2-1.4-1.6-2.2C103.9,140.8,103.7,139.8,103.7,138.7 M107.9,138.7c0,1,0.3,1.9,0.9,2.5c0.6,0.6,1.4,0.9,2.5,0.9
		c1.1,0,1.9-0.3,2.5-0.9c0.6-0.6,0.9-1.5,0.9-2.5s-0.3-1.9-0.9-2.5c-0.6-0.6-1.4-0.9-2.5-0.9c-1.1,0-1.9,0.3-2.5,0.9
		C108.2,136.9,107.9,137.7,107.9,138.7"/>
	<path class="st5" d="M134.3,145.5h-4v-1.8h-0.1c-0.2,0.3-0.3,0.5-0.6,0.8c-0.2,0.3-0.5,0.5-0.9,0.7c-0.3,0.2-0.7,0.4-1.1,0.5
		c-0.4,0.1-0.9,0.2-1.4,0.2c-1.1,0-1.9-0.2-2.6-0.5c-0.7-0.3-1.2-0.8-1.5-1.3c-0.4-0.6-0.6-1.3-0.7-2c-0.1-0.8-0.2-1.6-0.2-2.5V132
		h4.2v6.6c0,0.4,0,0.8,0,1.2c0,0.4,0.1,0.8,0.2,1.2c0.1,0.4,0.4,0.6,0.6,0.9c0.3,0.2,0.7,0.3,1.2,0.3s1-0.1,1.3-0.3
		c0.3-0.2,0.6-0.5,0.8-0.8s0.3-0.7,0.3-1.1c0.1-0.4,0.1-0.8,0.1-1.3V132h4.2L134.3,145.5L134.3,145.5z"/>
	<path class="st5" d="M144.9,136c-0.6-0.8-1.4-1.1-2.4-1.1c-0.4,0-0.7,0.1-1,0.2c-0.3,0.2-0.5,0.5-0.5,0.9c0,0.3,0.2,0.6,0.5,0.7
		c0.3,0.2,0.8,0.3,1.3,0.4c0.5,0.1,1.1,0.2,1.7,0.4c0.6,0.1,1.2,0.4,1.7,0.7c0.5,0.3,1,0.7,1.3,1.2c0.3,0.5,0.5,1.2,0.5,2
		c0,0.9-0.2,1.6-0.6,2.2c-0.4,0.6-0.9,1-1.5,1.4c-0.6,0.3-1.3,0.6-2,0.7c-0.7,0.1-1.5,0.2-2.2,0.2c-0.9,0-1.9-0.1-2.9-0.4
		c-1-0.3-1.8-0.7-2.5-1.4l2.5-2.8c0.4,0.5,0.8,0.9,1.3,1.1c0.5,0.2,1,0.4,1.7,0.4c0.5,0,0.9-0.1,1.3-0.2c0.4-0.1,0.6-0.4,0.6-0.8
		s-0.2-0.6-0.5-0.8c-0.3-0.2-0.8-0.3-1.3-0.4c-0.5-0.1-1.1-0.2-1.7-0.4c-0.6-0.1-1.2-0.3-1.7-0.6c-0.5-0.3-1-0.7-1.3-1.2
		c-0.3-0.5-0.5-1.2-0.5-2c0-0.8,0.2-1.5,0.5-2.1c0.3-0.6,0.8-1,1.3-1.4c0.5-0.4,1.1-0.6,1.8-0.8c0.7-0.2,1.4-0.3,2.1-0.3
		c0.9,0,1.8,0.1,2.7,0.4c0.9,0.3,1.7,0.7,2.3,1.4L144.9,136L144.9,136z"/>
	<path class="st5" d="M163,143.2c-0.7,0.9-1.5,1.5-2.5,2c-1,0.5-2.1,0.7-3.2,0.7s-2-0.2-2.9-0.5c-0.9-0.3-1.7-0.8-2.4-1.4
		c-0.7-0.6-1.2-1.4-1.6-2.2c-0.4-0.9-0.6-1.9-0.6-2.9c0-1.1,0.2-2,0.6-2.9c0.4-0.9,0.9-1.6,1.6-2.2c0.7-0.6,1.5-1.1,2.4-1.4
		c0.9-0.3,1.9-0.5,2.9-0.5c1,0,1.8,0.2,2.6,0.5c0.8,0.3,1.5,0.8,2,1.4c0.5,0.6,1,1.4,1.3,2.2c0.3,0.9,0.4,1.9,0.4,2.9v1.3h-9.7
		c0.2,0.8,0.5,1.4,1.1,1.9c0.6,0.5,1.2,0.7,2.1,0.7c0.7,0,1.3-0.2,1.7-0.5c0.5-0.3,0.9-0.7,1.2-1.2L163,143.2L163,143.2z
		 M159.4,137.2c0-0.7-0.2-1.3-0.7-1.8c-0.5-0.5-1.1-0.8-1.9-0.8c-0.5,0-0.9,0.1-1.2,0.2c-0.4,0.2-0.7,0.3-0.9,0.6
		c-0.2,0.2-0.4,0.5-0.6,0.8c-0.1,0.3-0.2,0.6-0.2,1L159.4,137.2L159.4,137.2z"/>
	<g>
		<path class="st5" d="M35.8,163.8v-9.6H41c0.4,0,0.8,0,1.2,0.1s0.7,0.2,1,0.4c0.3,0.2,0.5,0.4,0.7,0.7c0.2,0.3,0.3,0.6,0.3,1v0.6
			c0,0.5-0.2,0.8-0.5,1.2c-0.3,0.3-0.7,0.5-1.2,0.6v0.1c0.7,0.1,1.2,0.4,1.5,0.7c0.3,0.3,0.5,0.8,0.5,1.3v0.6c0,0.5-0.1,0.8-0.3,1.1
			c-0.2,0.3-0.4,0.5-0.8,0.7c-0.3,0.2-0.7,0.3-1.1,0.3c-0.4,0.1-0.8,0.1-1.2,0.1L35.8,163.8L35.8,163.8z M38.1,158.1h2.7
			c0.3,0,0.5-0.1,0.7-0.2c0.2-0.2,0.2-0.3,0.2-0.6V157c0-0.2-0.1-0.4-0.2-0.6c-0.1-0.1-0.4-0.2-0.7-0.2h-2.7L38.1,158.1L38.1,158.1z
			 M38.1,161.8h3c0.3,0,0.5-0.1,0.7-0.2c0.1-0.2,0.2-0.4,0.2-0.6v-0.2c0-0.2-0.1-0.5-0.2-0.6c-0.1-0.2-0.4-0.2-0.7-0.2h-3
			L38.1,161.8L38.1,161.8z"/>
		<path class="st5" d="M53.4,162.1v1.7c-0.2,0-0.3,0.1-0.5,0.1c-0.2,0-0.4,0-0.7,0c-0.5,0-1-0.1-1.3-0.4c-0.3-0.2-0.4-0.6-0.4-1.2
			h-0.1c-0.1,0.2-0.2,0.5-0.3,0.7c-0.1,0.2-0.3,0.4-0.5,0.5c-0.2,0.1-0.4,0.3-0.7,0.3c-0.3,0.1-0.6,0.1-0.9,0.1
			c-0.3,0-0.6,0-0.9-0.1c-0.3-0.1-0.5-0.2-0.7-0.4c-0.2-0.2-0.4-0.4-0.5-0.6c-0.1-0.2-0.2-0.5-0.2-0.9v-0.4c0-0.6,0.2-1.1,0.7-1.5
			c0.5-0.4,1.1-0.6,2-0.6h2.1V159c0-0.4-0.1-0.7-0.3-0.8c-0.2-0.2-0.5-0.3-0.9-0.3s-0.7,0.1-0.9,0.2s-0.3,0.3-0.3,0.6l0,0.2h-2.2
			c0-0.9,0.3-1.6,0.9-2c0.5-0.4,1.4-0.7,2.6-0.7s2,0.2,2.5,0.6c0.5,0.4,0.8,1.2,0.8,2.2v2.5c0,0.2,0,0.3,0.1,0.4
			c0.1,0.1,0.2,0.1,0.4,0.1L53.4,162.1L53.4,162.1z M48.6,162.3c0.3,0,0.6,0,0.8-0.1c0.2-0.1,0.4-0.1,0.5-0.2
			c0.1-0.1,0.2-0.3,0.3-0.4c0.1-0.2,0.1-0.4,0.1-0.7v-0.2h-1.8c-0.6,0-0.8,0.2-0.8,0.7v0.2c0,0.2,0.1,0.4,0.2,0.5
			C48.2,162.3,48.4,162.3,48.6,162.3"/>
		<path class="st5" d="M58.8,159.3c0.4,0.1,0.8,0.2,1.1,0.3c0.3,0.1,0.5,0.3,0.7,0.5c0.2,0.2,0.3,0.4,0.4,0.6
			c0.1,0.2,0.1,0.5,0.1,0.8v0.2c0,0.7-0.3,1.2-0.8,1.6S59,164,58,164l0,0.2c0.5,0,0.9,0.2,1.2,0.3c0.3,0.2,0.4,0.5,0.4,0.8
			c0,0.7-0.5,1-1.5,1c-0.3,0-0.5,0-0.7-0.1c-0.2,0-0.3-0.1-0.5-0.1v-0.7h0.3c0.2,0,0.3,0,0.4-0.1s0.2-0.1,0.2-0.3s0-0.2-0.1-0.3
			c-0.1-0.1-0.2-0.2-0.3-0.2l0.2-0.6c-0.5,0-0.9-0.1-1.3-0.1c-0.4-0.1-0.7-0.2-1-0.4c-0.3-0.2-0.5-0.5-0.7-0.8
			c-0.2-0.3-0.2-0.7-0.3-1.2h2.1l0,0.2c0,0.2,0.1,0.4,0.3,0.5c0.2,0.1,0.6,0.2,1,0.2c0.5,0,0.8,0,1-0.1c0.2-0.1,0.3-0.2,0.3-0.4
			v-0.1c0-0.2-0.1-0.4-0.2-0.4s-0.4-0.1-0.6-0.2l-1.8-0.3c-0.6-0.1-1.1-0.3-1.5-0.6c-0.4-0.3-0.5-0.8-0.5-1.5v-0.2
			c0-0.7,0.3-1.3,0.9-1.6s1.4-0.6,2.4-0.6c0.6,0,1.1,0.1,1.5,0.2s0.8,0.3,1,0.5c0.3,0.2,0.5,0.5,0.6,0.8c0.1,0.3,0.2,0.7,0.2,1h-2.1
			l0-0.2c0-0.2-0.1-0.4-0.3-0.6c-0.2-0.1-0.5-0.2-0.9-0.2c-0.5,0-0.7,0.1-0.9,0.2c-0.2,0.1-0.3,0.2-0.3,0.4v0.1
			c0,0.2,0.1,0.3,0.2,0.4c0.1,0.1,0.3,0.2,0.6,0.2L58.8,159.3L58.8,159.3z"/>
		<path class="st5" d="M69.9,162.1v1.7c-0.2,0-0.3,0.1-0.5,0.1s-0.4,0-0.7,0c-0.5,0-1-0.1-1.3-0.4s-0.4-0.6-0.4-1.2h-0.1
			c-0.1,0.2-0.2,0.5-0.3,0.7c-0.1,0.2-0.3,0.4-0.5,0.5c-0.2,0.1-0.4,0.3-0.7,0.3c-0.3,0.1-0.6,0.1-0.9,0.1c-0.3,0-0.6,0-0.9-0.1
			c-0.3-0.1-0.5-0.2-0.7-0.4c-0.2-0.2-0.4-0.4-0.5-0.6c-0.1-0.2-0.2-0.5-0.2-0.9v-0.4c0-0.6,0.2-1.1,0.7-1.5c0.5-0.4,1.1-0.6,2-0.6
			h2.1V159c0-0.4-0.1-0.7-0.3-0.8c-0.2-0.2-0.5-0.3-0.9-0.3s-0.7,0.1-0.9,0.2s-0.3,0.3-0.3,0.6l0,0.2h-2.2c0-0.9,0.3-1.6,0.9-2
			c0.5-0.4,1.4-0.7,2.6-0.7s2,0.2,2.5,0.6c0.5,0.4,0.8,1.2,0.8,2.2v2.5c0,0.2,0,0.3,0.1,0.4c0.1,0.1,0.2,0.1,0.4,0.1L69.9,162.1
			L69.9,162.1z M65.2,162.3c0.3,0,0.6,0,0.8-0.1c0.2-0.1,0.4-0.1,0.5-0.2c0.1-0.1,0.2-0.3,0.3-0.4c0.1-0.2,0.1-0.4,0.1-0.7v-0.2
			h-1.8c-0.6,0-0.8,0.2-0.8,0.7v0.2c0,0.2,0.1,0.4,0.2,0.5C64.7,162.3,64.9,162.3,65.2,162.3"/>
		<path class="st5" d="M75.1,156.3c0.2,0,0.4,0,0.5,0c0.1,0,0.2,0.1,0.3,0.1v2.2h-1c-0.6,0-1,0.1-1.3,0.4c-0.2,0.3-0.4,0.7-0.4,1.3
			v3.5h-2.3v-7.4h2.3v2.2h0.1c0-0.5,0.1-0.9,0.2-1.1c0.1-0.3,0.2-0.5,0.3-0.7c0.1-0.2,0.3-0.3,0.5-0.4
			C74.6,156.3,74.8,156.3,75.1,156.3"/>
		<rect x="76.8" y="156.4" class="st5" width="2.3" height="7.4"/>
		<path class="st5" d="M85.3,156.3c0.8,0,1.4,0.2,1.8,0.6c0.4,0.4,0.6,1.1,0.6,2v5h-2.3v-4.2c0-0.5-0.1-0.9-0.3-1.1s-0.5-0.3-1-0.3
			c-0.5,0-0.8,0.1-1,0.3c-0.2,0.2-0.3,0.6-0.3,1.1v4.2h-2.3v-7.4h2.3v1.6H83c0.2-0.6,0.5-1,0.8-1.3
			C84.2,156.4,84.7,156.3,85.3,156.3"/>
		<rect x="89.4" y="156.4" class="st5" width="2.3" height="7.4"/>
		<path class="st5" d="M97.9,156.3c0.8,0,1.4,0.2,1.8,0.6c0.4,0.4,0.6,1.1,0.6,2v5h-2.3v-4.2c0-0.5-0.1-0.9-0.3-1.1
			c-0.2-0.2-0.5-0.3-1-0.3c-0.5,0-0.8,0.1-1,0.3c-0.2,0.2-0.3,0.6-0.3,1.1v4.2h-2.3v-7.4h2.3v1.6h0.1c0.2-0.6,0.5-1,0.8-1.3
			S97.3,156.3,97.9,156.3"/>
		<path class="st5" d="M111.6,163.8l-0.7-1.8h-3.7l-0.7,1.8h-2.5l3.8-9.6h2.6l3.7,9.6H111.6L111.6,163.8z M107.9,160.2h2.3l-1.1-3
			H109L107.9,160.2L107.9,160.2z"/>
		<rect x="114.9" y="153.8" class="st5" width="2.3" height="10"/>
		<path class="st5" d="M123.2,158.3h-1.8v3.2c0,0.4,0.2,0.5,0.5,0.5h1.2v1.8c-0.2,0-0.5,0.1-0.8,0.1c-0.3,0-0.6,0-0.9,0
			c-0.8,0-1.4-0.2-1.8-0.5c-0.4-0.4-0.5-0.9-0.5-1.8v-3.4h-1v-1.8h1V155l2.3-0.5v2h1.8L123.2,158.3L123.2,158.3z"/>
		<path class="st5" d="M125.7,166.3c-0.2,0-0.5,0-0.7,0c-0.2,0-0.4-0.1-0.6-0.1v-1.7h0.8c0.3,0,0.5-0.1,0.6-0.2
			c0.1-0.1,0.2-0.3,0.4-0.6l-2.8-7.3h2.4l1.6,4.6h0.1l1.4-4.6h2.3l-2.7,7.3c-0.2,0.5-0.4,1-0.6,1.3c-0.2,0.3-0.4,0.6-0.6,0.8
			c-0.2,0.2-0.5,0.3-0.7,0.4C126.4,166.3,126.1,166.3,125.7,166.3"/>
		<path class="st5" d="M139.3,162.1v1.7c-0.2,0-0.3,0.1-0.5,0.1s-0.4,0-0.7,0c-0.5,0-1-0.1-1.3-0.4c-0.3-0.2-0.4-0.6-0.4-1.2h-0.1
			c-0.1,0.2-0.2,0.5-0.3,0.7c-0.1,0.2-0.3,0.4-0.5,0.5c-0.2,0.1-0.4,0.3-0.7,0.3c-0.3,0.1-0.6,0.1-0.9,0.1c-0.3,0-0.6,0-0.9-0.1
			c-0.3-0.1-0.5-0.2-0.7-0.4c-0.2-0.2-0.4-0.4-0.5-0.6c-0.1-0.2-0.2-0.5-0.2-0.9v-0.4c0-0.6,0.2-1.1,0.7-1.5c0.5-0.4,1.1-0.6,2-0.6
			h2.1V159c0-0.4-0.1-0.7-0.3-0.8c-0.2-0.2-0.5-0.3-0.9-0.3c-0.4,0-0.7,0.1-0.9,0.2c-0.2,0.1-0.3,0.3-0.3,0.6l0,0.2h-2.2
			c0-0.9,0.3-1.6,0.9-2c0.5-0.4,1.4-0.7,2.6-0.7s2,0.2,2.5,0.6c0.5,0.4,0.8,1.2,0.8,2.2v2.5c0,0.2,0,0.3,0.1,0.4
			c0.1,0.1,0.2,0.1,0.4,0.1L139.3,162.1L139.3,162.1z M134.6,162.3c0.3,0,0.6,0,0.8-0.1c0.2-0.1,0.4-0.1,0.5-0.2
			c0.1-0.1,0.2-0.3,0.3-0.4c0.1-0.2,0.1-0.4,0.1-0.7v-0.2h-1.8c-0.6,0-0.8,0.2-0.8,0.7v0.2c0,0.2,0.1,0.4,0.2,0.5
			C134.1,162.3,134.3,162.3,134.6,162.3"/>
		<path class="st5" d="M145.2,156.3c0.5,0,0.9,0.1,1.2,0.3c0.4,0.2,0.7,0.4,0.9,0.7c0.2,0.3,0.4,0.7,0.5,1.2c0.1,0.5,0.2,1,0.2,1.5
			v0.4c0,0.6-0.1,1.1-0.2,1.5c-0.1,0.5-0.3,0.8-0.5,1.2c-0.2,0.3-0.5,0.6-0.9,0.7c-0.4,0.2-0.8,0.3-1.2,0.3c-0.7,0-1.2-0.2-1.6-0.5
			c-0.4-0.3-0.7-0.8-0.8-1.4h-0.1v4.1h-2.3v-9.8h2.3v1.7h0.1c0.2-0.6,0.5-1.1,0.8-1.4C144,156.4,144.5,156.3,145.2,156.3
			 M145.7,159.8c0-0.6-0.1-1-0.4-1.2c-0.2-0.2-0.6-0.4-1.2-0.4s-0.9,0.1-1.2,0.3c-0.2,0.2-0.4,0.6-0.4,1.2v0.8c0,0.6,0.1,1,0.4,1.2
			c0.2,0.2,0.6,0.3,1.2,0.3s0.9-0.1,1.2-0.4c0.2-0.2,0.4-0.6,0.4-1.2V159.8L145.7,159.8z"/>
		<rect x="149.3" y="156.4" class="st5" width="2.3" height="7.4"/>
		<path class="st5" d="M156.4,164c-0.5,0-1,0-1.4-0.1c-0.4-0.1-0.8-0.2-1.1-0.4c-0.3-0.2-0.5-0.5-0.7-0.8c-0.2-0.3-0.3-0.7-0.3-1.2
			h2.1l0,0.2c0,0.2,0.1,0.4,0.3,0.5c0.2,0.1,0.6,0.2,1,0.2c0.5,0,0.8,0,1-0.1c0.2-0.1,0.3-0.2,0.3-0.4v-0.1c0-0.2-0.1-0.4-0.2-0.4
			s-0.4-0.1-0.6-0.2l-1.8-0.3c-0.6-0.1-1.1-0.3-1.5-0.6c-0.4-0.3-0.5-0.8-0.5-1.5v-0.2c0-0.7,0.3-1.3,0.9-1.6s1.4-0.6,2.4-0.6
			c0.6,0,1.1,0.1,1.5,0.2c0.4,0.1,0.8,0.3,1,0.5c0.3,0.2,0.5,0.5,0.6,0.8c0.1,0.3,0.2,0.7,0.2,1h-2.1l0-0.2c0-0.2-0.1-0.4-0.3-0.6
			c-0.2-0.1-0.5-0.2-0.9-0.2s-0.7,0.1-0.9,0.2c-0.2,0.1-0.3,0.2-0.3,0.4v0.1c0,0.2,0.1,0.3,0.2,0.4s0.3,0.2,0.6,0.2l1.7,0.2
			c0.4,0.1,0.8,0.2,1.1,0.3c0.3,0.1,0.5,0.3,0.7,0.5c0.2,0.2,0.3,0.4,0.4,0.6c0.1,0.2,0.1,0.5,0.1,0.8v0.2c0,0.7-0.3,1.3-0.9,1.6
			C158.3,163.8,157.5,164,156.4,164"/>
		<rect x="161.1" y="156.4" class="st5" width="2.3" height="7.4"/>
	</g>
	<g>
		<path class="st5" d="M79.4,67v11.5H92c-2.7,3.9-7.5,6.5-12.6,6.5c-8,0-15.4-6.5-15.4-15.5S71.2,54,79.4,54c0,0,0,0,0,0h10.6V36.8
			H79.4c-18,0-32.6,14.6-32.6,32.7s14.6,32.7,32.6,32.7s32.7-14.6,32.7-32.7V67C112.1,67,79.4,67,79.4,67z"/>
		<polygon class="st5" points="122.1,16.4 122.1,36.8 112.1,36.8 112.1,16.1 95.2,16.1 95.2,61.9 112.1,61.9 112.1,54 122.1,54 
			122.1,88.4 139,88.4 139,16.4 		"/>
		<path class="st6" d="M77.9,115.4c-25.1,0-45.6-20.5-45.6-45.7c0-8.7,2.5-17.1,7.1-24.4c4.5-7.1,10.9-12.8,18.4-16.5
			c0.6-0.3,1.4-0.1,1.8,0.6c0.3,0.6,0.1,1.4-0.6,1.8c-7.1,3.5-13.1,8.9-17.3,15.6c-4.4,6.9-6.7,14.8-6.7,23c0,23.7,19.3,43,42.9,43
			c6.3,0,12.4-1.3,18-4c0.7-0.3,1.4,0,1.8,0.6c0.3,0.7,0,1.4-0.6,1.8C91,114,84.6,115.4,77.9,115.4"/>
		<path class="st7" d="M79.1,109.3c-21.9,0-39.8-17.9-39.8-39.8s17.8-39.8,39.8-39.8h10.7c0.7,0,1.3,0.6,1.3,1.3
			c0,0.7-0.6,1.3-1.3,1.3H79.1C58.7,32.3,42,49,42,69.5s16.6,37.2,37.1,37.2s37.2-16.7,37.2-37.2v-2.3c0-0.7,0.6-1.3,1.3-1.3
			c0.7,0,1.3,0.6,1.3,1.3v2.3C119,91.4,101.1,109.3,79.1,109.3"/>
		<path class="st8" d="M48.2,112.3c-0.3,0-0.5-0.1-0.8-0.3c-6.7-4.8-12.2-11.2-16-18.5c-3.9-7.5-6-16-6-24.5
			c0-11.8,3.8-22.9,11-32.3c0.4-0.6,1.3-0.7,1.8-0.2c0.6,0.4,0.7,1.3,0.2,1.8C31.6,47.3,28,57.9,28,69.1c0,8.1,2,16.2,5.7,23.3
			c3.6,6.9,8.9,13,15.2,17.6c0.6,0.4,0.7,1.2,0.3,1.8C49,112.1,48.6,112.3,48.2,112.3"/>
	</g>
</g>
</svg>
