<svg version="1.1" id="Layer_1" xmlns="http://www.w3.org/2000/svg" x="0" y="0" viewBox="0 0 441.73 186.79" xml:space="preserve"><style>.st2{fill:#19459d}</style><path class="st2" d="M272.19 173.32c-3.49 0-5.7-5.66-5.7-8.26 0-.44.05-1.62.05-1.67.1-.69.64-3.74.79-4.43.34-.44.94-.69 1.57-.69 2.11 0 3.1 2.8 3.1 4.33v.49c-.1.39-.98 3.49-1.08 3.89v.25c0 .2.2 1.23.25 1.48.05 0 .25.05.29.05 2.56 0 3.74-8.56 6.3-8.56 2.95 0 1.43 12.39 3.25 12.39 1.38 0 2.95-5.36 4.13-14.8.34-.89.3-2.07.25-2.9.05-.05.44-.2.49-.25h.15c2.61 0 3.49 7.13 3.49 8.75 0 3.64-1.03 13.28-6.49 13.28-1.92 0-4.28-2.31-5.12-3.64-.15-.15-.79-1.52-1.03-1.92-.1-.3-.1-.79-.54-.98-1.4.83-1.69 3.19-4.15 3.19zm27.54-17.22c2.75 0 4.03 2.46 4.28 4.48.44 3.44-3.2 8.71-7.08 8.71-1.33 0-1.57.59-1.38 1.62.1 1.13.74 2.61 2.36 2.61 2.95 0 4.43-1.97 6.39-3.34.3.15.54.39.54.64.39 3.39-5.66 5.9-8.95 4.18-2.61-1.13-4.03-3.15-4.38-5.46.01-2.03-.04-13.44 8.22-13.44zm-.39 3s-.64.98-.93 1.48c-.49.84-2.16 4.08-2.02 5.02l.1.15c1.92-1.57 3.49-4.23 3.2-6.64h-.35zm20.36 8.17c-.2-2.51.39-8.56 2.95-10.33 1.57 0 2.51 2.21 2.51 3.64 0 4.28-2.85 7.23-1.18 11.56 2.36 1.48 6.1-1.97 8.02-2.95 2.95-1.53-4.33 7.57-8.36 5.9-2.75-1.13-3.93-5.07-3.93-7.72v-.1zm3.39-18.89s.15-.2.2-.2c.15-.05.64-.05.79-.05 1.38 0 3 1.57 3 3.1 0 .69-.15 1.08-.69 1.52h-.79c-.25 0-1.13.05-1.43-.25-.54-.69-.93-3.2-1.08-3.88v-.24z"/><path class="st2" d="M329.38 157.04c2.02-1.62 4.03 2.31 3.89 4.33l.05.05c.54.05 1.82-3.2 3.98-3.2 6.69.1 4.77 9.05 5.41 13.13.2 1.33 2.95 2.41 6.05-1.67 1.28 2.7-2.46 6.25-5.12 5.41-5.36-.93-5.36-8.41-6.25-12.59-4.38 1.43-2.36 11.51-4.57 12.54-1.62 0-2.75-1.77-3.15-3.15-.29-6-.93-10.97-.29-14.85z"/><path class="st2" d="M348.81 171.55c.74.44 1.18.44 2.02.44 1.38 0 4.38-.84 4.38-2.61 0-.39-.1-.84-.49-1.23l-4.48-4.28c-.93-.84-1.23-1.97-1.23-3.1 0-3.64 3.29-5.02 5.9-6.94.49-.29.69-.29 1.13-.29 1.28 0 3.2.59 3.2 2.02 0 .94-1.03 2.9-2.36 2.51-1.28.64-4.58 2.66-4.58 4.28 0 .49.69 1.23 1.03 1.53.34.39 3.84 3.69 4.23 4.08 1.08 1.03 1.92 2.16 1.92 3.59 0 2.41-2.07 3.84-4.57 3.84-1.97 0-4.33-1.33-5.66-2.71-.2-.3-.69-.89-.69-.89l.25-.24zm13.23-18.89c1.72-.44 3.05.2 3.34 2.75v2.85c5.46-5.9 10.23 2.56 10.52 7.03.2 3.54-3.54 6.25-6.93 6.25-1.03 0-2.56.15-3.05-.88-.93.2-.1 16.13-1.13 16.13-2.11 0-2.61-2.61-3.34-4.13.34-21.3.15-23.36.59-30zm5.36 17.31c-.05.1-.34.39-.44.44h.1c.98 0 .54-.3.93-.84 2.26-3.44 3.34-2.66 3.05-7.13 0-.29-.1-1.67-.1-1.92-.44-.49-.34-1.77-1.08-1.77-5.21 0-4.13 6.34-4.08 9.74-.05.25.05 1.53.05 1.77.54 0 1.08-.15 1.53-.49 0 0 .1.05.1.1l-.06.1zm10.52-2.7c-.2-2.51.39-8.56 2.95-10.33 1.57 0 2.51 2.21 2.51 3.64 0 4.28-2.85 7.23-1.18 11.56 2.36 1.48 6.1-1.97 8.02-2.95 2.95-1.53-4.33 7.57-8.36 5.9-2.75-1.13-3.93-5.07-3.93-7.72v-.1zm3.4-18.89s.15-.2.2-.2c.15-.05.64-.05.79-.05 1.38 0 3 1.57 3 3.1 0 .69-.15 1.08-.69 1.52h-.79c-.25 0-1.13.05-1.43-.25-.54-.69-.93-3.2-1.08-3.88v-.24z"/><path class="st2" d="M393.56 159.59c.98 0 2.02-1.43 4.08-1.43 1.87 0 5.02 1.18 4.87 2.9-.05.98-.44 2.46-1.87 2.8-1.38.29-.64-2.9-1.62-2.9-.05 0-.1.05-.1.05-2.51 1.03-3.54 3.1-4.18 5.26-.3 1.67-.69 3.34-.79 5.16-.05.79.2 1.43.15 2.16 0 .15-.1.69-.1.79-.2.25-.79.44-1.03.44-2.11 0-3.39-2.9-3.34-4.28 0-.49.3-4.23.3-4.67 0-.74-.44-6.59-.49-7.38 0-.3 0-2.07.05-2.36 2.35.02 3.78 3.46 4.07 3.46zm18.69-3.49c2.75 0 4.03 2.46 4.28 4.48.44 3.44-3.2 8.71-7.08 8.71-1.33 0-1.57.59-1.38 1.62.1 1.13.74 2.61 2.36 2.61 2.95 0 4.43-1.97 6.39-3.34.3.15.54.39.54.64.39 3.39-5.66 5.9-8.95 4.18-2.61-1.13-4.03-3.15-4.38-5.46.01-2.03-.04-13.44 8.22-13.44zm-.39 3s-.64.98-.93 1.48c-.49.84-2.16 4.08-2.02 5.02l.1.15c1.92-1.57 3.49-4.23 3.2-6.64h-.35zm8.16 11.02c1.23 0 3.15.59 3.15 1.52 0 .34-.93 2.85-3.29 2.85-.3 0-.44-2.66-.44-2.95-.01-.34-.3-1.42.58-1.42zm5.76 0c1.23 0 3.15.59 3.15 1.52 0 .34-.93 2.85-3.29 2.85-.3 0-.44-2.66-.44-2.95-.01-.34-.31-1.42.58-1.42zm5.75 0c1.23 0 3.15.59 3.15 1.52 0 .34-.93 2.85-3.29 2.85-.3 0-.44-2.66-.44-2.95-.01-.34-.31-1.42.58-1.42z"/><path d="M133.99 124.94v-23.82h13.41c4.97 0 7.47 1.86 7.47 5.59 0 3.27-1.92 5.26-5.77 5.97v.07c2.09.28 3.61.8 4.55 1.59 1.01.87 1.52 2.16 1.52 3.89 0 2.25-.78 3.93-2.33 5.04-1.54 1.11-3.64 1.67-6.32 1.67h-12.53zm7.23-18.56v4.43h3.22c2.16 0 3.25-.71 3.25-2.14 0-1.53-.87-2.28-2.62-2.28h-3.85zm-.04 8.93v4.38h3.89c.85 0 1.55-.2 2.07-.56.52-.38.83-.89.85-1.51.05-1.55-.87-2.31-2.73-2.31h-4.08zm17.7-14.19h7.4v23.82h-7.4zm23.19 24.4c-4.09 0-7.18-1.22-9.25-3.65-1.9-2.24-2.85-5.32-2.85-9.26 0-4.38 1.03-7.54 3.1-9.47 1.92-1.74 4.92-2.61 9-2.61 4.06 0 7.07.87 9 2.61 2.07 1.93 3.09 5.09 3.09 9.47 0 3.94-.95 7.02-2.84 9.26-2.08 2.43-5.15 3.65-9.25 3.65zm0-5.66c3.42 0 5.14-2.41 5.14-7.25 0-3.76-1.72-5.65-5.14-5.65-3.44 0-5.14 1.89-5.14 5.65 0 4.84 1.7 7.25 5.14 7.25zm20.99 5.08v-17.4h-7.04v-6.42h21.47v6.42h-7.03v17.4zm17.17 0v-23.82h18.31v5.84h-11.57v3.21h11.57v5.65h-11.57v3.47h11.57v5.65zm41.81-21.38v7.19c-1.72-2.53-4.11-3.8-7.14-3.8-1.89 0-3.38.6-4.44 1.77-1.03 1.18-1.56 2.76-1.56 4.76 0 4.27 2.03 6.37 6.07 6.37 2.89 0 5.25-1.24 7.07-3.75v6.2c-.91.88-2.08 1.61-3.51 2.19a14.27 14.27 0 01-5.33 1.02c-3.71 0-6.58-1.22-8.55-3.65-1.8-2.21-2.69-5.15-2.69-8.83 0-8.34 3.86-12.5 11.64-12.5 1.75 0 3.36.25 4.81.75 1.61.53 2.83 1.29 3.63 2.28zm3.51 21.38v-23.82h7.42v8.57h7.41v-8.57h7.39v23.82h-7.39v-9.22h-7.41v9.22zm26.9 0v-23.82h10.16l7.23 15.25h.07v-15.25h6.51v23.82h-8.74l-8.66-16.27h-.08v16.27zm39.74.58c-4.1 0-7.19-1.22-9.26-3.65-1.9-2.24-2.85-5.32-2.85-9.26 0-4.38 1.03-7.54 3.11-9.47 1.92-1.74 4.91-2.61 9-2.61 4.06 0 7.06.87 8.98 2.61 2.08 1.93 3.12 5.09 3.12 9.47 0 3.94-.96 7.02-2.85 9.26-2.07 2.43-5.17 3.65-9.25 3.65zm0-5.66c3.42 0 5.14-2.41 5.14-7.25 0-3.76-1.72-5.65-5.14-5.65-3.44 0-5.15 1.89-5.15 5.65 0 4.84 1.71 7.25 5.15 7.25zm15.62 5.08v-23.82h7.39v17.97h9.51v5.85zm31.68.58c-4.1 0-7.19-1.22-9.26-3.65-1.89-2.24-2.84-5.32-2.84-9.26 0-4.38 1.03-7.54 3.09-9.47 1.94-1.74 4.93-2.61 9-2.61s7.06.87 9 2.61c2.07 1.93 3.1 5.09 3.1 9.47 0 3.94-.95 7.02-2.85 9.26-2.06 2.43-5.15 3.65-9.24 3.65zm0-5.66c3.42 0 5.14-2.41 5.14-7.25 0-3.76-1.72-5.65-5.14-5.65-3.43 0-5.14 1.89-5.14 5.65-.01 4.84 1.7 7.25 5.14 7.25zm36.56-7.05v7.36c-2.03 3.57-5.44 5.35-10.22 5.35-3.78 0-6.72-1.27-8.84-3.79-1.92-2.31-2.89-5.23-2.89-8.77 0-3.93 1.24-7.05 3.74-9.34 2.19-2.05 4.91-3.09 8.14-3.09 4.02 0 7.07 1.04 9.11 3.09v6.65c-1.97-2.47-4.5-3.7-7.54-3.7-2.28 0-3.97.71-5.08 2.15-.94 1.2-1.4 2.81-1.4 4.84 0 1.9.39 3.43 1.15 4.6.91 1.38 2.29 2.08 4.14 2.08 1.19 0 2.1-.27 2.74-.83v-6.61h6.95zm10.09 12.13v-8.57L418 101.12h7.96l3.89 9.18 3.92-9.18h7.96l-8.19 15.25v8.57zM170.47 49.38l-11.87 35.3h-13.39l-11.71-35.3h11.77l6.58 24.69h.11L159 49.38zM203 51.81v10.32c-2.23-3.11-6.35-4.66-12.34-4.66-1.55 0-2.87.21-3.98.62-1.39.5-2.08 1.22-2.08 2.14 0 .79.57 1.4 1.73 1.85 1 .41 3.36 1.03 7.08 1.86 7.24 1.59 10.86 5.03 10.86 10.37 0 3.42-1.56 6.18-4.68 8.28-2.91 1.96-6.52 2.95-10.78 2.95-5.18 0-9.86-1.21-14.01-3.61v-9.52c1.12 1.53 3.06 2.78 5.83 3.76 2.45.84 4.84 1.28 7.15 1.28 4 0 5.99-.93 5.99-2.77 0-.73-.5-1.3-1.49-1.71-.96-.45-3.39-1.12-7.26-2.05-4.07-.95-7.03-2.27-8.89-3.94-1.81-1.68-2.71-3.83-2.71-6.47 0-3.65 1.57-6.58 4.73-8.8 3-2.13 6.78-3.19 11.35-3.19 5.37 0 9.88 1.1 13.5 3.29zm16.89 32.87v-12.7l-12.7-22.6h12.41l6.06 13.61 6.12-13.61h12.39l-12.76 22.6v12.7z" fill-rule="evenodd" clip-rule="evenodd"/><path d="M0 82.13c0-18.06 27.48-32.7 61.37-32.7 32.81 0 59.6 13.73 61.29 30.98-5.35-13.85-28.36-24.26-55.93-24.26-31.54 0-57.1 13.62-57.1 30.41 0 10.12 9.28 19.11 23.56 24.63C13.48 105.76 0 94.79 0 82.13z" fill="#939598"/><path class="st2" d="M16.48 42.27C23.63 20.24 41.7 4.79 62.76 0c-18.42 6.17-29.34 22.12-35.8 42-10.83 33.33 2.98 67.68 36.3 78.5a63.26 63.26 0 0033.66 1.54c-12.44 4.17-26.28 4.53-39.72.16-33.32-10.83-51.57-46.6-40.72-79.93z"/><path d="M82.12 72.09c2.48 6.8 1 14.1-3.27 19.35 3.34-5.07 3.37-10.69 1.13-16.84-3.75-10.31-14.19-15.2-24.5-11.44-3.49 1.27-6.4 2.06-8.6 4.75a19.82 19.82 0 019.78-7.69c10.31-3.76 21.7 1.56 25.46 11.87z"/></svg>